<?xml version="1.0" standalone="no"?>
<!DOCTYPE svg PUBLIC "-//W3C//DTD SVG 20010904//EN"
 "http://www.w3.org/TR/2001/REC-SVG-20010904/DTD/svg10.dtd">
<svg version="1.0" xmlns="http://www.w3.org/2000/svg"
 width="431.000000pt" height="431.000000pt" viewBox="0 0 431.000000 431.000000"
 preserveAspectRatio="xMidYMid meet">
<metadata>
Created by potrace 1.14, written by Peter Selinger 2001-2017
</metadata>
<g transform="translate(0.000000,431.000000) scale(0.100000,-0.100000)"
fill="#000000" stroke="none">
<path d="M1874 4253 c4 -4 -44 -17 -106 -29 -912 -180 -1586 -907 -1698 -1834
-22 -180 -8 -464 30 -650 114 -542 429 -1013 886 -1319 357 -240 751 -361
1174 -361 804 0 1529 452 1885 1174 228 462 277 989 139 1487 -210 762 -834
1342 -1612 1499 -73 14 -129 30 -125 33 3 4 -126 7 -287 7 -161 0 -290 -3
-286 -7z"/>
</g>
</svg>
